<mxfile host="65bd71144e">
    <diagram id="h_qBBH71V72rioFIJIEM" name="Page-1">
        <mxGraphModel dx="1582" dy="833" grid="0" gridSize="10" guides="1" tooltips="1" connect="1" arrows="1" fold="1" page="1" pageScale="1" pageWidth="850" pageHeight="1100" background="#ffffff" math="0" shadow="0">
            <root>
                <mxCell id="0"/>
                <mxCell id="1" value="layer1" parent="0"/>
                <mxCell id="2" value="" style="rounded=0;whiteSpace=wrap;html=1;hachureGap=4;fontFamily=Helvetica;fontSize=20;glass=0;shadow=0;fillColor=none;strokeColor=#18141d;strokeWidth=1;" parent="1" vertex="1">
                    <mxGeometry x="30.75" y="103" width="790" height="490" as="geometry"/>
                </mxCell>
                <mxCell id="3" value="" style="shape=cylinder3;whiteSpace=wrap;html=1;boundedLbl=1;backgroundOutline=1;size=15;hachureGap=4;fontFamily=Helvetica;fontSize=20;fillColor=none;strokeColor=#18141d;shadow=0;strokeWidth=1;" parent="1" vertex="1">
                    <mxGeometry x="364" y="185" width="120" height="170" as="geometry"/>
                </mxCell>
                <mxCell id="4" value="" style="rounded=1;whiteSpace=wrap;html=1;hachureGap=4;fontFamily=Helvetica;fontSize=20;rotation=270;strokeColor=#18141d;shadow=0;strokeWidth=1;fillColor=none;" parent="1" vertex="1">
                    <mxGeometry x="207.75" y="405" width="130" height="90" as="geometry"/>
                </mxCell>
                <mxCell id="5" value="" style="rounded=1;whiteSpace=wrap;html=1;hachureGap=4;fontFamily=Helvetica;fontSize=20;rotation=270;strokeColor=#18141d;shadow=0;strokeWidth=1;fillColor=none;" parent="1" vertex="1">
                    <mxGeometry x="307.75" y="405" width="130" height="90" as="geometry"/>
                </mxCell>
                <mxCell id="6" value="" style="rounded=1;whiteSpace=wrap;html=1;hachureGap=4;fontFamily=Helvetica;fontSize=20;rotation=270;strokeColor=#18141d;shadow=0;strokeWidth=1;fillColor=none;" parent="1" vertex="1">
                    <mxGeometry x="407.75" y="405" width="130" height="90" as="geometry"/>
                </mxCell>
                <mxCell id="7" value="" style="rounded=1;whiteSpace=wrap;html=1;hachureGap=4;fontFamily=Helvetica;fontSize=20;rotation=270;strokeColor=#18141d;shadow=0;strokeWidth=1;fillColor=none;" parent="1" vertex="1">
                    <mxGeometry x="510.25" y="405" width="130" height="90" as="geometry"/>
                </mxCell>
                <mxCell id="8" value="&lt;font color=&quot;#000000&quot;&gt;warm water&lt;/font&gt;" style="text;html=1;strokeColor=none;fillColor=none;align=center;verticalAlign=middle;whiteSpace=wrap;rounded=0;hachureGap=4;fontFamily=Helvetica;fontSize=20;shadow=0;strokeWidth=1;" parent="1" vertex="1">
                    <mxGeometry x="242.75" y="435" width="60" height="30" as="geometry"/>
                </mxCell>
                <mxCell id="9" value="&lt;font color=&quot;#000000&quot;&gt;cold water&lt;/font&gt;" style="text;html=1;strokeColor=none;fillColor=none;align=center;verticalAlign=middle;whiteSpace=wrap;rounded=0;hachureGap=4;fontFamily=Helvetica;fontSize=20;shadow=0;strokeWidth=1;" parent="1" vertex="1">
                    <mxGeometry x="342.75" y="435" width="60" height="30" as="geometry"/>
                </mxCell>
                <mxCell id="10" value="&lt;font color=&quot;#000000&quot;&gt;acid in&lt;/font&gt;" style="text;html=1;strokeColor=none;fillColor=none;align=center;verticalAlign=middle;whiteSpace=wrap;rounded=0;hachureGap=4;fontFamily=Helvetica;fontSize=20;shadow=0;strokeWidth=1;" parent="1" vertex="1">
                    <mxGeometry x="442.75" y="435" width="60" height="30" as="geometry"/>
                </mxCell>
                <mxCell id="11" value="&lt;font color=&quot;#000000&quot;&gt;base in&lt;/font&gt;" style="text;html=1;strokeColor=none;fillColor=none;align=center;verticalAlign=middle;whiteSpace=wrap;rounded=0;hachureGap=4;fontFamily=Helvetica;fontSize=20;shadow=0;strokeWidth=1;" parent="1" vertex="1">
                    <mxGeometry x="545.25" y="435" width="60" height="30" as="geometry"/>
                </mxCell>
                <mxCell id="14" value="&lt;font color=&quot;#000000&quot;&gt;temperature&lt;/font&gt;" style="rounded=1;whiteSpace=wrap;html=1;hachureGap=4;fontFamily=Helvetica;fontSize=20;strokeColor=#18141d;shadow=0;strokeWidth=1;fillColor=none;" parent="1" vertex="1">
                    <mxGeometry x="631.5" y="202.5" width="135" height="70" as="geometry"/>
                </mxCell>
                <mxCell id="15" value="&lt;font color=&quot;#000000&quot;&gt;ph&lt;/font&gt;" style="rounded=1;whiteSpace=wrap;html=1;hachureGap=4;fontFamily=Helvetica;fontSize=20;strokeColor=#18141d;shadow=0;strokeWidth=1;fillColor=none;" parent="1" vertex="1">
                    <mxGeometry x="629" y="285" width="140" height="70" as="geometry"/>
                </mxCell>
                <mxCell id="16" value="&lt;font color=&quot;#000000&quot;&gt;Rotor&lt;/font&gt;" style="rounded=1;whiteSpace=wrap;html=1;hachureGap=4;fontFamily=Helvetica;fontSize=20;strokeColor=#18141d;shadow=0;strokeWidth=1;fillColor=none;" parent="1" vertex="1">
                    <mxGeometry x="70.25" y="206.25" width="137.5" height="71.25" as="geometry"/>
                </mxCell>
                <mxCell id="17" value="&lt;font color=&quot;#000000&quot;&gt;Aerator&lt;/font&gt;" style="rounded=1;whiteSpace=wrap;html=1;hachureGap=4;fontFamily=Helvetica;fontSize=20;strokeColor=#18141d;shadow=0;strokeWidth=1;fillColor=none;" parent="1" vertex="1">
                    <mxGeometry x="67.75" y="286.25" width="140" height="68.75" as="geometry"/>
                </mxCell>
                <mxCell id="164" value="&lt;font color=&quot;#000000&quot;&gt;Header&lt;/font&gt;" style="rounded=0;whiteSpace=wrap;html=1;hachureGap=4;fontFamily=Helvetica;fontSize=20;strokeColor=#18141d;shadow=0;strokeWidth=1;fillColor=none;" parent="1" vertex="1">
                    <mxGeometry x="30.75" y="103" width="790" height="50" as="geometry"/>
                </mxCell>
                <mxCell id="169" value="" style="ellipse;whiteSpace=wrap;html=1;hachureGap=4;strokeColor=#000000;fontFamily=Helvetica;fontSize=20;fontColor=#000000;fillColor=none;" parent="1" vertex="1">
                    <mxGeometry x="384" y="335" width="40" height="10" as="geometry"/>
                </mxCell>
                <mxCell id="171" style="edgeStyle=none;hachureGap=4;html=1;exitX=0;exitY=0.5;exitDx=0;exitDy=0;entryX=0.5;entryY=1;entryDx=0;entryDy=0;entryPerimeter=0;shadow=0;strokeColor=#18141d;strokeWidth=1;fontFamily=Helvetica;fontSize=20;fontColor=#000000;endArrow=none;endFill=0;" parent="1" source="170" target="3" edge="1">
                    <mxGeometry relative="1" as="geometry"/>
                </mxCell>
                <mxCell id="170" value="" style="ellipse;whiteSpace=wrap;html=1;hachureGap=4;strokeColor=#000000;fontFamily=Helvetica;fontSize=20;fontColor=#000000;fillColor=none;" parent="1" vertex="1">
                    <mxGeometry x="424" y="335" width="40" height="10" as="geometry"/>
                </mxCell>
                <mxCell id="172" value="&lt;font color=&quot;#000000&quot;&gt;Footer&lt;/font&gt;" style="rounded=0;whiteSpace=wrap;html=1;hachureGap=4;fontFamily=Helvetica;fontSize=20;strokeColor=#18141d;shadow=0;strokeWidth=1;fillColor=none;" vertex="1" parent="1">
                    <mxGeometry x="29" y="543" width="790" height="50" as="geometry"/>
                </mxCell>
            </root>
        </mxGraphModel>
    </diagram>
</mxfile>